<mxfile host="Electron" agent="Mozilla/5.0 (Windows NT 10.0; Win64; x64) AppleWebKit/537.36 (KHTML, like Gecko) draw.io/24.7.17 Chrome/128.0.6613.36 Electron/32.0.1 Safari/537.36" version="24.7.17">
  <diagram id="C5RBs43oDa-KdzZeNtuy" name="Page-1">
    <mxGraphModel dx="4327" dy="2070" grid="1" gridSize="10" guides="1" tooltips="1" connect="1" arrows="1" fold="1" page="1" pageScale="1" pageWidth="827" pageHeight="1169" background="#99b3ff" math="0" shadow="0">
      <root>
        <mxCell id="WIyWlLk6GJQsqaUBKTNV-0" />
        <mxCell id="WIyWlLk6GJQsqaUBKTNV-1" parent="WIyWlLk6GJQsqaUBKTNV-0" />
        <mxCell id="8YJlmUMI55xZdxhNdmQx-0" value="START" style="ellipse;whiteSpace=wrap;html=1;" parent="WIyWlLk6GJQsqaUBKTNV-1" vertex="1">
          <mxGeometry x="370" width="100" height="70" as="geometry" />
        </mxCell>
        <mxCell id="8YJlmUMI55xZdxhNdmQx-12" style="edgeStyle=orthogonalEdgeStyle;rounded=0;orthogonalLoop=1;jettySize=auto;html=1;entryX=0.5;entryY=0;entryDx=0;entryDy=0;exitX=0.5;exitY=0;exitDx=0;exitDy=0;" parent="WIyWlLk6GJQsqaUBKTNV-1" source="8YJlmUMI55xZdxhNdmQx-8" target="8YJlmUMI55xZdxhNdmQx-8" edge="1">
          <mxGeometry relative="1" as="geometry" />
        </mxCell>
        <mxCell id="8YJlmUMI55xZdxhNdmQx-3" value="&lt;div&gt;&amp;nbsp;&amp;nbsp;&amp;nbsp; selamat datang&lt;br&gt;&lt;/div&gt;&lt;div&gt;pilih opsi&lt;/div&gt;&lt;div&gt;1.register&lt;/div&gt;&lt;div&gt;2.login&lt;/div&gt;&lt;div&gt;3.exit&lt;br&gt;&lt;/div&gt;" style="shape=parallelogram;perimeter=parallelogramPerimeter;whiteSpace=wrap;html=1;fixedSize=1;" parent="WIyWlLk6GJQsqaUBKTNV-1" vertex="1">
          <mxGeometry x="360" y="200" width="120" height="70" as="geometry" />
        </mxCell>
        <mxCell id="8YJlmUMI55xZdxhNdmQx-5" value="" style="endArrow=classic;html=1;rounded=0;entryX=0.5;entryY=0;entryDx=0;entryDy=0;" parent="WIyWlLk6GJQsqaUBKTNV-1" target="8YJlmUMI55xZdxhNdmQx-8" edge="1">
          <mxGeometry width="50" height="50" relative="1" as="geometry">
            <mxPoint x="420" y="270" as="sourcePoint" />
            <mxPoint x="419.5" y="310" as="targetPoint" />
          </mxGeometry>
        </mxCell>
        <mxCell id="8YJlmUMI55xZdxhNdmQx-7" value="" style="endArrow=classic;html=1;rounded=0;" parent="WIyWlLk6GJQsqaUBKTNV-1" target="8YJlmUMI55xZdxhNdmQx-8" edge="1">
          <mxGeometry width="50" height="50" relative="1" as="geometry">
            <mxPoint x="419.5" y="360" as="sourcePoint" />
            <mxPoint x="419.5" y="420" as="targetPoint" />
          </mxGeometry>
        </mxCell>
        <mxCell id="8YJlmUMI55xZdxhNdmQx-8" value="&amp;nbsp;pilihan" style="shape=parallelogram;perimeter=parallelogramPerimeter;whiteSpace=wrap;html=1;fixedSize=1;" parent="WIyWlLk6GJQsqaUBKTNV-1" vertex="1">
          <mxGeometry x="360" y="320" width="120" height="60" as="geometry" />
        </mxCell>
        <mxCell id="8YJlmUMI55xZdxhNdmQx-9" value="pilihan == 1" style="rhombus;whiteSpace=wrap;html=1;" parent="WIyWlLk6GJQsqaUBKTNV-1" vertex="1">
          <mxGeometry x="360" y="430" width="120" height="80" as="geometry" />
        </mxCell>
        <mxCell id="8YJlmUMI55xZdxhNdmQx-10" value="" style="endArrow=classic;html=1;rounded=0;" parent="WIyWlLk6GJQsqaUBKTNV-1" edge="1">
          <mxGeometry width="50" height="50" relative="1" as="geometry">
            <mxPoint x="420" y="380" as="sourcePoint" />
            <mxPoint x="419.5" y="430" as="targetPoint" />
          </mxGeometry>
        </mxCell>
        <mxCell id="8YJlmUMI55xZdxhNdmQx-13" value="" style="endArrow=classic;html=1;rounded=0;" parent="WIyWlLk6GJQsqaUBKTNV-1" edge="1">
          <mxGeometry width="50" height="50" relative="1" as="geometry">
            <mxPoint x="419.5" y="509.5" as="sourcePoint" />
            <mxPoint x="419.5" y="570" as="targetPoint" />
          </mxGeometry>
        </mxCell>
        <mxCell id="8YJlmUMI55xZdxhNdmQx-16" value="pilihan == 2" style="rhombus;whiteSpace=wrap;html=1;" parent="WIyWlLk6GJQsqaUBKTNV-1" vertex="1">
          <mxGeometry x="210" y="510" width="120" height="80" as="geometry" />
        </mxCell>
        <mxCell id="8YJlmUMI55xZdxhNdmQx-17" value="pilihan == 3" style="rhombus;whiteSpace=wrap;html=1;" parent="WIyWlLk6GJQsqaUBKTNV-1" vertex="1">
          <mxGeometry x="60" y="590" width="120" height="80" as="geometry" />
        </mxCell>
        <mxCell id="8YJlmUMI55xZdxhNdmQx-19" value="" style="endArrow=classic;html=1;rounded=0;exitX=0.5;exitY=1;exitDx=0;exitDy=0;" parent="WIyWlLk6GJQsqaUBKTNV-1" source="8YJlmUMI55xZdxhNdmQx-16" edge="1">
          <mxGeometry width="50" height="50" relative="1" as="geometry">
            <mxPoint x="271.96" y="570" as="sourcePoint" />
            <mxPoint x="360" y="740" as="targetPoint" />
            <Array as="points">
              <mxPoint x="270" y="690" />
              <mxPoint x="360" y="690" />
            </Array>
          </mxGeometry>
        </mxCell>
        <mxCell id="8YJlmUMI55xZdxhNdmQx-26" value="admin = nabila, 036" style="rounded=0;whiteSpace=wrap;html=1;" parent="WIyWlLk6GJQsqaUBKTNV-1" vertex="1">
          <mxGeometry x="360" y="100" width="120" height="60" as="geometry" />
        </mxCell>
        <mxCell id="8YJlmUMI55xZdxhNdmQx-29" value="" style="endArrow=classic;html=1;rounded=0;" parent="WIyWlLk6GJQsqaUBKTNV-1" edge="1">
          <mxGeometry width="50" height="50" relative="1" as="geometry">
            <mxPoint x="420" y="70" as="sourcePoint" />
            <mxPoint x="420" y="100" as="targetPoint" />
          </mxGeometry>
        </mxCell>
        <mxCell id="8YJlmUMI55xZdxhNdmQx-30" value="" style="endArrow=classic;html=1;rounded=0;" parent="WIyWlLk6GJQsqaUBKTNV-1" edge="1">
          <mxGeometry width="50" height="50" relative="1" as="geometry">
            <mxPoint x="420" y="160" as="sourcePoint" />
            <mxPoint x="419.5" y="200" as="targetPoint" />
          </mxGeometry>
        </mxCell>
        <mxCell id="8YJlmUMI55xZdxhNdmQx-42" value="" style="endArrow=classic;html=1;rounded=0;entryX=0.5;entryY=0;entryDx=0;entryDy=0;" parent="WIyWlLk6GJQsqaUBKTNV-1" target="8YJlmUMI55xZdxhNdmQx-68" edge="1">
          <mxGeometry width="50" height="50" relative="1" as="geometry">
            <mxPoint x="359.5" y="810" as="sourcePoint" />
            <mxPoint x="359" y="850" as="targetPoint" />
          </mxGeometry>
        </mxCell>
        <mxCell id="8YJlmUMI55xZdxhNdmQx-43" value="" style="endArrow=classic;html=1;rounded=0;exitX=0.5;exitY=1;exitDx=0;exitDy=0;" parent="WIyWlLk6GJQsqaUBKTNV-1" edge="1" source="8YJlmUMI55xZdxhNdmQx-70">
          <mxGeometry width="50" height="50" relative="1" as="geometry">
            <mxPoint x="370" y="1060" as="sourcePoint" />
            <mxPoint x="363" y="1370" as="targetPoint" />
          </mxGeometry>
        </mxCell>
        <mxCell id="8YJlmUMI55xZdxhNdmQx-59" value="True" style="edgeLabel;html=1;align=center;verticalAlign=middle;resizable=0;points=[];" parent="8YJlmUMI55xZdxhNdmQx-43" vertex="1" connectable="0">
          <mxGeometry x="-0.56" y="3" relative="1" as="geometry">
            <mxPoint as="offset" />
          </mxGeometry>
        </mxCell>
        <mxCell id="8YJlmUMI55xZdxhNdmQx-45" value="" style="endArrow=classic;html=1;rounded=0;" parent="WIyWlLk6GJQsqaUBKTNV-1" edge="1">
          <mxGeometry width="50" height="50" relative="1" as="geometry">
            <mxPoint x="360.5" y="930" as="sourcePoint" />
            <mxPoint x="360" y="970" as="targetPoint" />
          </mxGeometry>
        </mxCell>
        <mxCell id="8YJlmUMI55xZdxhNdmQx-48" value="" style="endArrow=classic;html=1;rounded=0;exitX=0.5;exitY=1;exitDx=0;exitDy=0;" parent="WIyWlLk6GJQsqaUBKTNV-1" source="8YJlmUMI55xZdxhNdmQx-66" edge="1">
          <mxGeometry width="50" height="50" relative="1" as="geometry">
            <mxPoint x="430" y="630" as="sourcePoint" />
            <mxPoint x="360" y="740" as="targetPoint" />
            <Array as="points">
              <mxPoint x="420" y="690" />
              <mxPoint x="360" y="690" />
            </Array>
          </mxGeometry>
        </mxCell>
        <mxCell id="8YJlmUMI55xZdxhNdmQx-66" value="&lt;div&gt;Output&lt;/div&gt;&lt;div&gt;&lt;div&gt;buat username&lt;/div&gt;&lt;div&gt;buat password&lt;br&gt;&lt;/div&gt;&lt;/div&gt;" style="shape=parallelogram;perimeter=parallelogramPerimeter;whiteSpace=wrap;html=1;fixedSize=1;" parent="WIyWlLk6GJQsqaUBKTNV-1" vertex="1">
          <mxGeometry x="360" y="570" width="120" height="60" as="geometry" />
        </mxCell>
        <mxCell id="8YJlmUMI55xZdxhNdmQx-67" value="ouput&lt;br&gt;&lt;div&gt;&lt;div&gt;masukkan username&lt;/div&gt;&lt;div&gt;masukkan password&lt;br&gt;&lt;/div&gt;&lt;/div&gt;" style="shape=parallelogram;perimeter=parallelogramPerimeter;whiteSpace=wrap;html=1;fixedSize=1;" parent="WIyWlLk6GJQsqaUBKTNV-1" vertex="1">
          <mxGeometry x="290" y="740" width="140" height="70" as="geometry" />
        </mxCell>
        <mxCell id="8YJlmUMI55xZdxhNdmQx-68" value="&lt;div&gt;input&lt;/div&gt;&lt;div&gt;username&lt;/div&gt;&lt;div&gt;password&lt;br&gt;&lt;/div&gt;" style="shape=parallelogram;perimeter=parallelogramPerimeter;whiteSpace=wrap;html=1;fixedSize=1;" parent="WIyWlLk6GJQsqaUBKTNV-1" vertex="1">
          <mxGeometry x="300" y="870" width="120" height="60" as="geometry" />
        </mxCell>
        <mxCell id="8YJlmUMI55xZdxhNdmQx-70" value="check apakah akun ada?" style="rhombus;whiteSpace=wrap;html=1;" parent="WIyWlLk6GJQsqaUBKTNV-1" vertex="1">
          <mxGeometry x="290" y="970" width="145" height="90" as="geometry" />
        </mxCell>
        <mxCell id="8YJlmUMI55xZdxhNdmQx-104" value="" style="endArrow=classic;html=1;rounded=0;exitX=0;exitY=0.5;exitDx=0;exitDy=0;entryX=0.5;entryY=0;entryDx=0;entryDy=0;" parent="WIyWlLk6GJQsqaUBKTNV-1" target="8YJlmUMI55xZdxhNdmQx-16" edge="1">
          <mxGeometry width="50" height="50" relative="1" as="geometry">
            <mxPoint x="360" y="470" as="sourcePoint" />
            <mxPoint x="291" y="516" as="targetPoint" />
            <Array as="points">
              <mxPoint x="270" y="470" />
            </Array>
          </mxGeometry>
        </mxCell>
        <mxCell id="8YJlmUMI55xZdxhNdmQx-105" value="" style="endArrow=classic;html=1;rounded=0;exitX=0;exitY=0.5;exitDx=0;exitDy=0;entryX=0.5;entryY=0;entryDx=0;entryDy=0;" parent="WIyWlLk6GJQsqaUBKTNV-1" edge="1">
          <mxGeometry width="50" height="50" relative="1" as="geometry">
            <mxPoint x="210" y="550" as="sourcePoint" />
            <mxPoint x="120" y="590" as="targetPoint" />
            <Array as="points">
              <mxPoint x="120" y="550" />
            </Array>
          </mxGeometry>
        </mxCell>
        <mxCell id="8YJlmUMI55xZdxhNdmQx-117" value="" style="endArrow=classic;html=1;rounded=0;endFill=1;startArrow=none;startFill=0;exitX=0;exitY=0.5;exitDx=0;exitDy=0;" parent="WIyWlLk6GJQsqaUBKTNV-1" edge="1" source="8YJlmUMI55xZdxhNdmQx-17">
          <mxGeometry width="50" height="50" relative="1" as="geometry">
            <mxPoint x="57" y="892" as="sourcePoint" />
            <mxPoint x="360" y="2382" as="targetPoint" />
            <Array as="points">
              <mxPoint x="-453" y="630" />
              <mxPoint x="-453" y="2302" />
              <mxPoint x="360" y="2302" />
            </Array>
          </mxGeometry>
        </mxCell>
        <mxCell id="aPoa0OIxS1GHCvVoLN4S-0" value="" style="endArrow=classic;html=1;rounded=0;" parent="WIyWlLk6GJQsqaUBKTNV-1" edge="1">
          <mxGeometry width="50" height="50" relative="1" as="geometry">
            <mxPoint x="360" y="330" as="sourcePoint" />
            <mxPoint x="390" y="330" as="targetPoint" />
          </mxGeometry>
        </mxCell>
        <mxCell id="aPoa0OIxS1GHCvVoLN4S-2" value="" style="endArrow=classic;html=1;rounded=0;" parent="WIyWlLk6GJQsqaUBKTNV-1" edge="1">
          <mxGeometry width="50" height="50" relative="1" as="geometry">
            <mxPoint x="460" y="584" as="sourcePoint" />
            <mxPoint x="490" y="584" as="targetPoint" />
          </mxGeometry>
        </mxCell>
        <mxCell id="aPoa0OIxS1GHCvVoLN4S-3" value="" style="endArrow=classic;html=1;rounded=0;" parent="WIyWlLk6GJQsqaUBKTNV-1" edge="1">
          <mxGeometry width="50" height="50" relative="1" as="geometry">
            <mxPoint x="414" y="760" as="sourcePoint" />
            <mxPoint x="444" y="760" as="targetPoint" />
          </mxGeometry>
        </mxCell>
        <mxCell id="aPoa0OIxS1GHCvVoLN4S-4" value="" style="endArrow=classic;html=1;rounded=0;" parent="WIyWlLk6GJQsqaUBKTNV-1" edge="1">
          <mxGeometry width="50" height="50" relative="1" as="geometry">
            <mxPoint x="302.5" y="880" as="sourcePoint" />
            <mxPoint x="332.5" y="880" as="targetPoint" />
          </mxGeometry>
        </mxCell>
        <mxCell id="GjJC3CLc0AVbMbGIdXd2-0" value="Apakah anda ingin login ulang? [Y/N]" style="shape=parallelogram;perimeter=parallelogramPerimeter;whiteSpace=wrap;html=1;fixedSize=1;" vertex="1" parent="WIyWlLk6GJQsqaUBKTNV-1">
          <mxGeometry x="570" y="985" width="130" height="65" as="geometry" />
        </mxCell>
        <mxCell id="GjJC3CLc0AVbMbGIdXd2-2" value="" style="endArrow=classic;html=1;rounded=0;entryX=0.082;entryY=0.465;entryDx=0;entryDy=0;entryPerimeter=0;exitX=1;exitY=0.5;exitDx=0;exitDy=0;" edge="1" parent="WIyWlLk6GJQsqaUBKTNV-1" source="8YJlmUMI55xZdxhNdmQx-70" target="GjJC3CLc0AVbMbGIdXd2-0">
          <mxGeometry width="50" height="50" relative="1" as="geometry">
            <mxPoint x="520" y="1015" as="sourcePoint" />
            <mxPoint x="585" y="1010" as="targetPoint" />
          </mxGeometry>
        </mxCell>
        <mxCell id="GjJC3CLc0AVbMbGIdXd2-4" value="false" style="edgeLabel;html=1;align=center;verticalAlign=middle;resizable=0;points=[];" vertex="1" connectable="0" parent="GjJC3CLc0AVbMbGIdXd2-2">
          <mxGeometry x="-0.1867" y="-2" relative="1" as="geometry">
            <mxPoint as="offset" />
          </mxGeometry>
        </mxCell>
        <mxCell id="GjJC3CLc0AVbMbGIdXd2-5" value="" style="endArrow=classic;html=1;rounded=0;exitX=1;exitY=0.5;exitDx=0;exitDy=0;entryX=1;entryY=0.5;entryDx=0;entryDy=0;" edge="1" parent="WIyWlLk6GJQsqaUBKTNV-1" source="GjJC3CLc0AVbMbGIdXd2-9">
          <mxGeometry width="50" height="50" relative="1" as="geometry">
            <mxPoint x="695" y="1010" as="sourcePoint" />
            <mxPoint x="470" y="230" as="targetPoint" />
            <Array as="points">
              <mxPoint x="1000" y="1300" />
              <mxPoint x="1000" y="230" />
            </Array>
          </mxGeometry>
        </mxCell>
        <mxCell id="GjJC3CLc0AVbMbGIdXd2-7" value="" style="endArrow=classic;html=1;rounded=0;exitX=1;exitY=0.5;exitDx=0;exitDy=0;" edge="1" parent="WIyWlLk6GJQsqaUBKTNV-1" source="GjJC3CLc0AVbMbGIdXd2-8" target="8YJlmUMI55xZdxhNdmQx-67">
          <mxGeometry width="50" height="50" relative="1" as="geometry">
            <mxPoint x="670" y="1120" as="sourcePoint" />
            <mxPoint x="560" y="760" as="targetPoint" />
            <Array as="points">
              <mxPoint x="750" y="1209" />
              <mxPoint x="750" y="775" />
            </Array>
          </mxGeometry>
        </mxCell>
        <mxCell id="GjJC3CLc0AVbMbGIdXd2-8" value="ulang == Y" style="rhombus;whiteSpace=wrap;html=1;" vertex="1" parent="WIyWlLk6GJQsqaUBKTNV-1">
          <mxGeometry x="567.5" y="1169" width="115" height="80" as="geometry" />
        </mxCell>
        <mxCell id="GjJC3CLc0AVbMbGIdXd2-9" value="ulang == N" style="rhombus;whiteSpace=wrap;html=1;" vertex="1" parent="WIyWlLk6GJQsqaUBKTNV-1">
          <mxGeometry x="430" y="1260" width="110" height="80" as="geometry" />
        </mxCell>
        <mxCell id="GjJC3CLc0AVbMbGIdXd2-10" value="" style="endArrow=classic;html=1;rounded=0;entryX=0.5;entryY=0;entryDx=0;entryDy=0;exitX=0;exitY=0.5;exitDx=0;exitDy=0;" edge="1" parent="WIyWlLk6GJQsqaUBKTNV-1" source="GjJC3CLc0AVbMbGIdXd2-8" target="GjJC3CLc0AVbMbGIdXd2-9">
          <mxGeometry width="50" height="50" relative="1" as="geometry">
            <mxPoint x="550" y="1090" as="sourcePoint" />
            <mxPoint x="550" y="1040" as="targetPoint" />
            <Array as="points">
              <mxPoint x="485" y="1210" />
            </Array>
          </mxGeometry>
        </mxCell>
        <mxCell id="GjJC3CLc0AVbMbGIdXd2-141" value="" style="endArrow=classic;html=1;rounded=0;exitX=0.458;exitY=0.988;exitDx=0;exitDy=0;exitPerimeter=0;" edge="1" parent="WIyWlLk6GJQsqaUBKTNV-1" source="GjJC3CLc0AVbMbGIdXd2-0">
          <mxGeometry width="50" height="50" relative="1" as="geometry">
            <mxPoint x="625" y="1110" as="sourcePoint" />
            <mxPoint x="630" y="1080" as="targetPoint" />
            <Array as="points">
              <mxPoint x="630" y="1060" />
            </Array>
          </mxGeometry>
        </mxCell>
        <mxCell id="GjJC3CLc0AVbMbGIdXd2-142" value="input ulang" style="shape=parallelogram;perimeter=parallelogramPerimeter;whiteSpace=wrap;html=1;fixedSize=1;" vertex="1" parent="WIyWlLk6GJQsqaUBKTNV-1">
          <mxGeometry x="560" y="1080" width="130" height="60" as="geometry" />
        </mxCell>
        <mxCell id="GjJC3CLc0AVbMbGIdXd2-143" value="" style="endArrow=classic;html=1;rounded=0;" edge="1" parent="WIyWlLk6GJQsqaUBKTNV-1">
          <mxGeometry width="50" height="50" relative="1" as="geometry">
            <mxPoint x="680" y="1000" as="sourcePoint" />
            <mxPoint x="710" y="1000" as="targetPoint" />
          </mxGeometry>
        </mxCell>
        <mxCell id="GjJC3CLc0AVbMbGIdXd2-144" value="" style="endArrow=classic;html=1;rounded=0;entryX=0.818;entryY=0.2;entryDx=0;entryDy=0;entryPerimeter=0;" edge="1" parent="WIyWlLk6GJQsqaUBKTNV-1">
          <mxGeometry width="50" height="50" relative="1" as="geometry">
            <mxPoint x="570" y="1090" as="sourcePoint" />
            <mxPoint x="599.98" y="1090" as="targetPoint" />
          </mxGeometry>
        </mxCell>
        <mxCell id="GjJC3CLc0AVbMbGIdXd2-145" value="" style="endArrow=classic;html=1;rounded=0;" edge="1" parent="WIyWlLk6GJQsqaUBKTNV-1">
          <mxGeometry width="50" height="50" relative="1" as="geometry">
            <mxPoint x="624.76" y="1139" as="sourcePoint" />
            <mxPoint x="624.76" y="1169" as="targetPoint" />
          </mxGeometry>
        </mxCell>
        <mxCell id="GjJC3CLc0AVbMbGIdXd2-147" value="admin?" style="rhombus;whiteSpace=wrap;html=1;" vertex="1" parent="WIyWlLk6GJQsqaUBKTNV-1">
          <mxGeometry x="302.5" y="1370" width="120" height="80" as="geometry" />
        </mxCell>
        <mxCell id="GjJC3CLc0AVbMbGIdXd2-148" value="" style="endArrow=classic;html=1;rounded=0;exitX=0;exitY=0.5;exitDx=0;exitDy=0;" edge="1" parent="WIyWlLk6GJQsqaUBKTNV-1" source="GjJC3CLc0AVbMbGIdXd2-164" target="GjJC3CLc0AVbMbGIdXd2-161">
          <mxGeometry width="50" height="50" relative="1" as="geometry">
            <mxPoint x="302.5" y="1672" as="sourcePoint" />
            <mxPoint x="242.5" y="1712" as="targetPoint" />
            <Array as="points">
              <mxPoint x="220" y="1687" />
            </Array>
          </mxGeometry>
        </mxCell>
        <mxCell id="GjJC3CLc0AVbMbGIdXd2-149" value="" style="endArrow=classic;html=1;rounded=0;" edge="1" parent="WIyWlLk6GJQsqaUBKTNV-1">
          <mxGeometry width="50" height="50" relative="1" as="geometry">
            <mxPoint x="362.5" y="1732" as="sourcePoint" />
            <mxPoint x="362" y="1772" as="targetPoint" />
          </mxGeometry>
        </mxCell>
        <mxCell id="GjJC3CLc0AVbMbGIdXd2-150" value="" style="endArrow=classic;html=1;rounded=0;" edge="1" parent="WIyWlLk6GJQsqaUBKTNV-1">
          <mxGeometry width="50" height="50" relative="1" as="geometry">
            <mxPoint x="362.5" y="1602" as="sourcePoint" />
            <mxPoint x="362" y="1642" as="targetPoint" />
          </mxGeometry>
        </mxCell>
        <mxCell id="GjJC3CLc0AVbMbGIdXd2-151" value="" style="endArrow=classic;html=1;rounded=0;" edge="1" parent="WIyWlLk6GJQsqaUBKTNV-1">
          <mxGeometry width="50" height="50" relative="1" as="geometry">
            <mxPoint x="222.5" y="1822" as="sourcePoint" />
            <mxPoint x="222" y="1862" as="targetPoint" />
          </mxGeometry>
        </mxCell>
        <mxCell id="GjJC3CLc0AVbMbGIdXd2-152" value="" style="endArrow=classic;html=1;rounded=0;entryX=0.5;entryY=0;entryDx=0;entryDy=0;" edge="1" parent="WIyWlLk6GJQsqaUBKTNV-1" target="GjJC3CLc0AVbMbGIdXd2-174">
          <mxGeometry width="50" height="50" relative="1" as="geometry">
            <mxPoint x="42.5" y="1937" as="sourcePoint" />
            <mxPoint x="42" y="1977" as="targetPoint" />
          </mxGeometry>
        </mxCell>
        <mxCell id="GjJC3CLc0AVbMbGIdXd2-153" value="" style="endArrow=classic;html=1;rounded=0;" edge="1" parent="WIyWlLk6GJQsqaUBKTNV-1">
          <mxGeometry width="50" height="50" relative="1" as="geometry">
            <mxPoint x="1210.5" y="1602" as="sourcePoint" />
            <mxPoint x="1210" y="1642" as="targetPoint" />
          </mxGeometry>
        </mxCell>
        <mxCell id="GjJC3CLc0AVbMbGIdXd2-154" value="" style="endArrow=classic;html=1;rounded=0;entryX=0.5;entryY=0;entryDx=0;entryDy=0;" edge="1" parent="WIyWlLk6GJQsqaUBKTNV-1" target="GjJC3CLc0AVbMbGIdXd2-159">
          <mxGeometry width="50" height="50" relative="1" as="geometry">
            <mxPoint x="362.5" y="1450" as="sourcePoint" />
            <mxPoint x="362" y="1490" as="targetPoint" />
          </mxGeometry>
        </mxCell>
        <mxCell id="GjJC3CLc0AVbMbGIdXd2-155" value="True" style="edgeLabel;html=1;align=center;verticalAlign=middle;resizable=0;points=[];" vertex="1" connectable="0" parent="GjJC3CLc0AVbMbGIdXd2-154">
          <mxGeometry x="-0.4231" y="1" relative="1" as="geometry">
            <mxPoint as="offset" />
          </mxGeometry>
        </mxCell>
        <mxCell id="GjJC3CLc0AVbMbGIdXd2-156" value="" style="endArrow=classic;html=1;rounded=0;entryX=0.547;entryY=0.033;entryDx=0;entryDy=0;entryPerimeter=0;" edge="1" parent="WIyWlLk6GJQsqaUBKTNV-1" target="GjJC3CLc0AVbMbGIdXd2-158">
          <mxGeometry width="50" height="50" relative="1" as="geometry">
            <mxPoint x="422.5" y="1412" as="sourcePoint" />
            <mxPoint x="1210" y="1482" as="targetPoint" />
            <Array as="points">
              <mxPoint x="1213" y="1412" />
            </Array>
          </mxGeometry>
        </mxCell>
        <mxCell id="GjJC3CLc0AVbMbGIdXd2-157" value="false" style="edgeLabel;html=1;align=center;verticalAlign=middle;resizable=0;points=[];" vertex="1" connectable="0" parent="GjJC3CLc0AVbMbGIdXd2-156">
          <mxGeometry x="-0.2857" relative="1" as="geometry">
            <mxPoint y="1" as="offset" />
          </mxGeometry>
        </mxCell>
        <mxCell id="GjJC3CLc0AVbMbGIdXd2-158" value="&lt;div&gt;Menu pengguna&lt;br&gt;&lt;/div&gt;&lt;div&gt;1. tambah transaksi&lt;/div&gt;&lt;div&gt;2. tampilkan transaksi &lt;br&gt;&lt;/div&gt;&lt;div&gt;3. Ubah transakssi&lt;/div&gt;&lt;div&gt;4.hapus transaksi&lt;/div&gt;&lt;div&gt;5. keluar&lt;br&gt;&lt;/div&gt;" style="shape=parallelogram;perimeter=parallelogramPerimeter;whiteSpace=wrap;html=1;fixedSize=1;" vertex="1" parent="WIyWlLk6GJQsqaUBKTNV-1">
          <mxGeometry x="1120" y="1502" width="170" height="100" as="geometry" />
        </mxCell>
        <mxCell id="GjJC3CLc0AVbMbGIdXd2-159" value="&lt;div&gt;Menu admin&lt;br&gt;&lt;/div&gt;&lt;div&gt;1. tambah transaksi&lt;/div&gt;&lt;div&gt;2. tampilkan semua transaksi &lt;br&gt;&lt;/div&gt;&lt;div&gt;3. Ubah transakssi&lt;/div&gt;&lt;div&gt;4.hapus transaksi&lt;br&gt;&lt;/div&gt;&lt;div&gt;5. keluar&lt;br&gt;&lt;/div&gt;" style="shape=parallelogram;perimeter=parallelogramPerimeter;whiteSpace=wrap;html=1;fixedSize=1;" vertex="1" parent="WIyWlLk6GJQsqaUBKTNV-1">
          <mxGeometry x="267.5" y="1502" width="190" height="100" as="geometry" />
        </mxCell>
        <mxCell id="GjJC3CLc0AVbMbGIdXd2-160" value="pilihan pengguna==1" style="rhombus;whiteSpace=wrap;html=1;" vertex="1" parent="WIyWlLk6GJQsqaUBKTNV-1">
          <mxGeometry x="1140" y="1642" width="145" height="90" as="geometry" />
        </mxCell>
        <mxCell id="GjJC3CLc0AVbMbGIdXd2-161" value="pilihan admin==2" style="rhombus;whiteSpace=wrap;html=1;" vertex="1" parent="WIyWlLk6GJQsqaUBKTNV-1">
          <mxGeometry x="150" y="1732" width="145" height="90" as="geometry" />
        </mxCell>
        <mxCell id="GjJC3CLc0AVbMbGIdXd2-162" value="pilihan pengguna==5" style="rhombus;whiteSpace=wrap;html=1;" vertex="1" parent="WIyWlLk6GJQsqaUBKTNV-1">
          <mxGeometry x="490" y="2092" width="145" height="90" as="geometry" />
        </mxCell>
        <mxCell id="GjJC3CLc0AVbMbGIdXd2-163" value="pilihan pengguna==4" style="rhombus;whiteSpace=wrap;html=1;" vertex="1" parent="WIyWlLk6GJQsqaUBKTNV-1">
          <mxGeometry x="690" y="1967" width="145" height="90" as="geometry" />
        </mxCell>
        <mxCell id="GjJC3CLc0AVbMbGIdXd2-164" value="pilihan admin==1" style="rhombus;whiteSpace=wrap;html=1;" vertex="1" parent="WIyWlLk6GJQsqaUBKTNV-1">
          <mxGeometry x="290" y="1642" width="145" height="90" as="geometry" />
        </mxCell>
        <mxCell id="GjJC3CLc0AVbMbGIdXd2-165" value="pilihan pengguna==2" style="rhombus;whiteSpace=wrap;html=1;" vertex="1" parent="WIyWlLk6GJQsqaUBKTNV-1">
          <mxGeometry x="995" y="1732" width="145" height="90" as="geometry" />
        </mxCell>
        <mxCell id="GjJC3CLc0AVbMbGIdXd2-166" value="pilihan admin==3" style="rhombus;whiteSpace=wrap;html=1;" vertex="1" parent="WIyWlLk6GJQsqaUBKTNV-1">
          <mxGeometry x="-30" y="1847" width="145" height="90" as="geometry" />
        </mxCell>
        <mxCell id="GjJC3CLc0AVbMbGIdXd2-167" value="pilihan admin==4" style="rhombus;whiteSpace=wrap;html=1;" vertex="1" parent="WIyWlLk6GJQsqaUBKTNV-1">
          <mxGeometry x="-210" y="1967" width="145" height="90" as="geometry" />
        </mxCell>
        <mxCell id="GjJC3CLc0AVbMbGIdXd2-168" value="pilihan pengguna==5" style="rhombus;whiteSpace=wrap;html=1;" vertex="1" parent="WIyWlLk6GJQsqaUBKTNV-1">
          <mxGeometry x="-400" y="2087" width="145" height="90" as="geometry" />
        </mxCell>
        <mxCell id="GjJC3CLc0AVbMbGIdXd2-169" value="" style="endArrow=classic;html=1;rounded=0;exitX=0;exitY=0.5;exitDx=0;exitDy=0;entryX=0.5;entryY=0;entryDx=0;entryDy=0;" edge="1" parent="WIyWlLk6GJQsqaUBKTNV-1" source="GjJC3CLc0AVbMbGIdXd2-161" target="GjJC3CLc0AVbMbGIdXd2-166">
          <mxGeometry width="50" height="50" relative="1" as="geometry">
            <mxPoint x="170" y="1757" as="sourcePoint" />
            <mxPoint x="122.5" y="1782" as="targetPoint" />
            <Array as="points">
              <mxPoint x="43" y="1777" />
            </Array>
          </mxGeometry>
        </mxCell>
        <mxCell id="GjJC3CLc0AVbMbGIdXd2-170" value="" style="endArrow=classic;html=1;rounded=0;exitX=0;exitY=0.5;exitDx=0;exitDy=0;entryX=0.5;entryY=0;entryDx=0;entryDy=0;" edge="1" parent="WIyWlLk6GJQsqaUBKTNV-1" source="GjJC3CLc0AVbMbGIdXd2-166" target="GjJC3CLc0AVbMbGIdXd2-167">
          <mxGeometry width="50" height="50" relative="1" as="geometry">
            <mxPoint x="20" y="1862" as="sourcePoint" />
            <mxPoint x="-27.5" y="1887" as="targetPoint" />
            <Array as="points">
              <mxPoint x="-137" y="1892" />
            </Array>
          </mxGeometry>
        </mxCell>
        <mxCell id="GjJC3CLc0AVbMbGIdXd2-171" value="" style="endArrow=classic;html=1;rounded=0;exitX=0;exitY=0.5;exitDx=0;exitDy=0;entryX=0.5;entryY=0;entryDx=0;entryDy=0;" edge="1" parent="WIyWlLk6GJQsqaUBKTNV-1" source="GjJC3CLc0AVbMbGIdXd2-167" target="GjJC3CLc0AVbMbGIdXd2-168">
          <mxGeometry width="50" height="50" relative="1" as="geometry">
            <mxPoint x="-75" y="1901" as="sourcePoint" />
            <mxPoint x="-120" y="1962" as="targetPoint" />
            <Array as="points">
              <mxPoint x="-327" y="2012" />
            </Array>
          </mxGeometry>
        </mxCell>
        <mxCell id="GjJC3CLc0AVbMbGIdXd2-172" value="&lt;div&gt;input&lt;/div&gt;&lt;div&gt;transaksi&lt;br&gt;&lt;/div&gt;" style="shape=parallelogram;perimeter=parallelogramPerimeter;whiteSpace=wrap;html=1;fixedSize=1;" vertex="1" parent="WIyWlLk6GJQsqaUBKTNV-1">
          <mxGeometry x="300" y="1772" width="120" height="60" as="geometry" />
        </mxCell>
        <mxCell id="GjJC3CLc0AVbMbGIdXd2-173" value="&lt;div&gt;Output &lt;br&gt;&lt;/div&gt;&lt;div&gt;semua data transaksi&lt;br&gt;&lt;/div&gt;" style="shape=parallelogram;perimeter=parallelogramPerimeter;whiteSpace=wrap;html=1;fixedSize=1;" vertex="1" parent="WIyWlLk6GJQsqaUBKTNV-1">
          <mxGeometry x="143" y="1862" width="147" height="60" as="geometry" />
        </mxCell>
        <mxCell id="GjJC3CLc0AVbMbGIdXd2-174" value="&lt;div&gt;input&lt;/div&gt;&lt;div&gt;ubah/update data baru&lt;br&gt;&lt;/div&gt;" style="shape=parallelogram;perimeter=parallelogramPerimeter;whiteSpace=wrap;html=1;fixedSize=1;" vertex="1" parent="WIyWlLk6GJQsqaUBKTNV-1">
          <mxGeometry x="-32" y="1982" width="147" height="60" as="geometry" />
        </mxCell>
        <mxCell id="GjJC3CLc0AVbMbGIdXd2-175" value="" style="endArrow=classic;html=1;rounded=0;entryX=0.5;entryY=0;entryDx=0;entryDy=0;" edge="1" parent="WIyWlLk6GJQsqaUBKTNV-1">
          <mxGeometry width="50" height="50" relative="1" as="geometry">
            <mxPoint x="-137.5" y="2057" as="sourcePoint" />
            <mxPoint x="-138" y="2102" as="targetPoint" />
          </mxGeometry>
        </mxCell>
        <mxCell id="GjJC3CLc0AVbMbGIdXd2-176" value="hapus data yang invalid/tidak relevan" style="rounded=0;whiteSpace=wrap;html=1;" vertex="1" parent="WIyWlLk6GJQsqaUBKTNV-1">
          <mxGeometry x="-197.5" y="2102" width="120" height="60" as="geometry" />
        </mxCell>
        <mxCell id="GjJC3CLc0AVbMbGIdXd2-177" value="" style="endArrow=classic;html=1;rounded=0;exitX=0;exitY=0.5;exitDx=0;exitDy=0;" edge="1" parent="WIyWlLk6GJQsqaUBKTNV-1">
          <mxGeometry width="50" height="50" relative="1" as="geometry">
            <mxPoint x="1140" y="1686" as="sourcePoint" />
            <mxPoint x="1071" y="1732" as="targetPoint" />
            <Array as="points">
              <mxPoint x="1070" y="1686" />
            </Array>
          </mxGeometry>
        </mxCell>
        <mxCell id="GjJC3CLc0AVbMbGIdXd2-178" value="" style="endArrow=classic;html=1;rounded=0;exitX=0;exitY=0.5;exitDx=0;exitDy=0;entryX=0.5;entryY=0;entryDx=0;entryDy=0;" edge="1" parent="WIyWlLk6GJQsqaUBKTNV-1" target="GjJC3CLc0AVbMbGIdXd2-190">
          <mxGeometry width="50" height="50" relative="1" as="geometry">
            <mxPoint x="995" y="1779" as="sourcePoint" />
            <mxPoint x="926" y="1825" as="targetPoint" />
            <Array as="points">
              <mxPoint x="919" y="1779" />
            </Array>
          </mxGeometry>
        </mxCell>
        <mxCell id="GjJC3CLc0AVbMbGIdXd2-179" value="" style="endArrow=classic;html=1;rounded=0;exitX=0;exitY=0.5;exitDx=0;exitDy=0;" edge="1" parent="WIyWlLk6GJQsqaUBKTNV-1" source="GjJC3CLc0AVbMbGIdXd2-190" target="GjJC3CLc0AVbMbGIdXd2-163">
          <mxGeometry width="50" height="50" relative="1" as="geometry">
            <mxPoint x="855" y="1866" as="sourcePoint" />
            <mxPoint x="786" y="1912" as="targetPoint" />
            <Array as="points">
              <mxPoint x="763" y="1892" />
            </Array>
          </mxGeometry>
        </mxCell>
        <mxCell id="GjJC3CLc0AVbMbGIdXd2-180" value="" style="endArrow=classic;html=1;rounded=0;exitX=0;exitY=0.5;exitDx=0;exitDy=0;entryX=0.5;entryY=0;entryDx=0;entryDy=0;" edge="1" parent="WIyWlLk6GJQsqaUBKTNV-1" source="GjJC3CLc0AVbMbGIdXd2-163" target="GjJC3CLc0AVbMbGIdXd2-162">
          <mxGeometry width="50" height="50" relative="1" as="geometry">
            <mxPoint x="690" y="1982" as="sourcePoint" />
            <mxPoint x="621" y="2028" as="targetPoint" />
            <Array as="points">
              <mxPoint x="563" y="2012" />
            </Array>
          </mxGeometry>
        </mxCell>
        <mxCell id="GjJC3CLc0AVbMbGIdXd2-181" value="&lt;div&gt;input&lt;/div&gt;&lt;div&gt;transaksi&lt;br&gt;&lt;/div&gt;" style="shape=parallelogram;perimeter=parallelogramPerimeter;whiteSpace=wrap;html=1;fixedSize=1;" vertex="1" parent="WIyWlLk6GJQsqaUBKTNV-1">
          <mxGeometry x="1152.5" y="1772" width="120" height="60" as="geometry" />
        </mxCell>
        <mxCell id="GjJC3CLc0AVbMbGIdXd2-182" value="" style="endArrow=classic;html=1;rounded=0;" edge="1" parent="WIyWlLk6GJQsqaUBKTNV-1">
          <mxGeometry width="50" height="50" relative="1" as="geometry">
            <mxPoint x="1212.37" y="1732" as="sourcePoint" />
            <mxPoint x="1211.87" y="1772" as="targetPoint" />
          </mxGeometry>
        </mxCell>
        <mxCell id="GjJC3CLc0AVbMbGIdXd2-183" value="" style="endArrow=classic;html=1;rounded=0;" edge="1" parent="WIyWlLk6GJQsqaUBKTNV-1">
          <mxGeometry width="50" height="50" relative="1" as="geometry">
            <mxPoint x="1067.37" y="1822" as="sourcePoint" />
            <mxPoint x="1066.87" y="1862" as="targetPoint" />
          </mxGeometry>
        </mxCell>
        <mxCell id="GjJC3CLc0AVbMbGIdXd2-184" value="&lt;div&gt;Output &lt;br&gt;&lt;/div&gt;&lt;div&gt;&amp;nbsp;data transaksi&lt;br&gt;&lt;/div&gt;" style="shape=parallelogram;perimeter=parallelogramPerimeter;whiteSpace=wrap;html=1;fixedSize=1;" vertex="1" parent="WIyWlLk6GJQsqaUBKTNV-1">
          <mxGeometry x="993" y="1862" width="147" height="60" as="geometry" />
        </mxCell>
        <mxCell id="GjJC3CLc0AVbMbGIdXd2-185" value="" style="endArrow=classic;html=1;rounded=0;entryX=0.5;entryY=0;entryDx=0;entryDy=0;" edge="1" parent="WIyWlLk6GJQsqaUBKTNV-1" source="GjJC3CLc0AVbMbGIdXd2-190" target="GjJC3CLc0AVbMbGIdXd2-186">
          <mxGeometry width="50" height="50" relative="1" as="geometry">
            <mxPoint x="922.3699999999999" y="1912" as="sourcePoint" />
            <mxPoint x="921.8699999999999" y="1952" as="targetPoint" />
          </mxGeometry>
        </mxCell>
        <mxCell id="GjJC3CLc0AVbMbGIdXd2-186" value="&lt;div&gt;input&lt;/div&gt;&lt;div&gt;ubah/update data baru&lt;br&gt;&lt;/div&gt;" style="shape=parallelogram;perimeter=parallelogramPerimeter;whiteSpace=wrap;html=1;fixedSize=1;" vertex="1" parent="WIyWlLk6GJQsqaUBKTNV-1">
          <mxGeometry x="846" y="1967" width="147" height="60" as="geometry" />
        </mxCell>
        <mxCell id="GjJC3CLc0AVbMbGIdXd2-187" value="" style="endArrow=classic;html=1;rounded=0;entryX=0.5;entryY=0;entryDx=0;entryDy=0;" edge="1" parent="WIyWlLk6GJQsqaUBKTNV-1">
          <mxGeometry width="50" height="50" relative="1" as="geometry">
            <mxPoint x="762.37" y="2057" as="sourcePoint" />
            <mxPoint x="761.87" y="2102" as="targetPoint" />
          </mxGeometry>
        </mxCell>
        <mxCell id="GjJC3CLc0AVbMbGIdXd2-188" value="hapus data yang invalid/tidak relevan" style="rounded=0;whiteSpace=wrap;html=1;" vertex="1" parent="WIyWlLk6GJQsqaUBKTNV-1">
          <mxGeometry x="702.5" y="2102" width="120" height="60" as="geometry" />
        </mxCell>
        <mxCell id="GjJC3CLc0AVbMbGIdXd2-189" value="" style="endArrow=classic;html=1;rounded=0;" edge="1" parent="WIyWlLk6GJQsqaUBKTNV-1" target="GjJC3CLc0AVbMbGIdXd2-190">
          <mxGeometry width="50" height="50" relative="1" as="geometry">
            <mxPoint x="922.3699999999999" y="1912" as="sourcePoint" />
            <mxPoint x="921.8699999999999" y="1952" as="targetPoint" />
          </mxGeometry>
        </mxCell>
        <mxCell id="GjJC3CLc0AVbMbGIdXd2-190" value="pilihan pengguna==3" style="rhombus;whiteSpace=wrap;html=1;" vertex="1" parent="WIyWlLk6GJQsqaUBKTNV-1">
          <mxGeometry x="846" y="1847" width="145" height="90" as="geometry" />
        </mxCell>
        <mxCell id="GjJC3CLc0AVbMbGIdXd2-191" value="" style="endArrow=classic;html=1;rounded=0;exitX=0.5;exitY=1;exitDx=0;exitDy=0;strokeColor=none;" edge="1" parent="WIyWlLk6GJQsqaUBKTNV-1" source="GjJC3CLc0AVbMbGIdXd2-168">
          <mxGeometry width="50" height="50" relative="1" as="geometry">
            <mxPoint x="-127.5" y="2067" as="sourcePoint" />
            <mxPoint x="-327" y="2302" as="targetPoint" />
            <Array as="points">
              <mxPoint x="-327" y="2252" />
            </Array>
          </mxGeometry>
        </mxCell>
        <mxCell id="GjJC3CLc0AVbMbGIdXd2-192" value="" style="endArrow=none;html=1;rounded=0;" edge="1" parent="WIyWlLk6GJQsqaUBKTNV-1">
          <mxGeometry width="50" height="50" relative="1" as="geometry">
            <mxPoint x="-327.9" y="2302" as="sourcePoint" />
            <mxPoint x="-327.9" y="2177" as="targetPoint" />
          </mxGeometry>
        </mxCell>
        <mxCell id="GjJC3CLc0AVbMbGIdXd2-193" value="" style="endArrow=none;html=1;rounded=0;" edge="1" parent="WIyWlLk6GJQsqaUBKTNV-1">
          <mxGeometry width="50" height="50" relative="1" as="geometry">
            <mxPoint x="-138" y="2302" as="sourcePoint" />
            <mxPoint x="-137.89999999999998" y="2162" as="targetPoint" />
          </mxGeometry>
        </mxCell>
        <mxCell id="GjJC3CLc0AVbMbGIdXd2-194" value="" style="endArrow=none;html=1;rounded=0;" edge="1" parent="WIyWlLk6GJQsqaUBKTNV-1">
          <mxGeometry width="50" height="50" relative="1" as="geometry">
            <mxPoint x="40" y="2302" as="sourcePoint" />
            <mxPoint x="42.1" y="2042" as="targetPoint" />
          </mxGeometry>
        </mxCell>
        <mxCell id="GjJC3CLc0AVbMbGIdXd2-195" value="" style="endArrow=none;html=1;rounded=0;" edge="1" parent="WIyWlLk6GJQsqaUBKTNV-1">
          <mxGeometry width="50" height="50" relative="1" as="geometry">
            <mxPoint x="222" y="2302" as="sourcePoint" />
            <mxPoint x="222.10000000000002" y="1922" as="targetPoint" />
          </mxGeometry>
        </mxCell>
        <mxCell id="GjJC3CLc0AVbMbGIdXd2-196" value="" style="endArrow=none;html=1;rounded=0;" edge="1" parent="WIyWlLk6GJQsqaUBKTNV-1">
          <mxGeometry width="50" height="50" relative="1" as="geometry">
            <mxPoint x="562" y="2302" as="sourcePoint" />
            <mxPoint x="562.1" y="2182" as="targetPoint" />
          </mxGeometry>
        </mxCell>
        <mxCell id="GjJC3CLc0AVbMbGIdXd2-197" value="" style="endArrow=none;html=1;rounded=0;" edge="1" parent="WIyWlLk6GJQsqaUBKTNV-1">
          <mxGeometry width="50" height="50" relative="1" as="geometry">
            <mxPoint x="760" y="2302" as="sourcePoint" />
            <mxPoint x="762.2" y="2162" as="targetPoint" />
          </mxGeometry>
        </mxCell>
        <mxCell id="GjJC3CLc0AVbMbGIdXd2-198" value="" style="endArrow=none;html=1;rounded=0;entryX=0.5;entryY=1;entryDx=0;entryDy=0;" edge="1" parent="WIyWlLk6GJQsqaUBKTNV-1" target="GjJC3CLc0AVbMbGIdXd2-181">
          <mxGeometry width="50" height="50" relative="1" as="geometry">
            <mxPoint x="360" y="2302" as="sourcePoint" />
            <mxPoint x="1160" y="2112" as="targetPoint" />
            <Array as="points">
              <mxPoint x="1213" y="2302" />
            </Array>
          </mxGeometry>
        </mxCell>
        <mxCell id="GjJC3CLc0AVbMbGIdXd2-199" value="" style="endArrow=none;html=1;rounded=0;" edge="1" parent="WIyWlLk6GJQsqaUBKTNV-1">
          <mxGeometry width="50" height="50" relative="1" as="geometry">
            <mxPoint x="921" y="2302" as="sourcePoint" />
            <mxPoint x="920.6" y="2027" as="targetPoint" />
          </mxGeometry>
        </mxCell>
        <mxCell id="GjJC3CLc0AVbMbGIdXd2-200" value="" style="endArrow=none;html=1;rounded=0;" edge="1" parent="WIyWlLk6GJQsqaUBKTNV-1">
          <mxGeometry width="50" height="50" relative="1" as="geometry">
            <mxPoint x="1068" y="2302" as="sourcePoint" />
            <mxPoint x="1067.6" y="1922" as="targetPoint" />
          </mxGeometry>
        </mxCell>
        <mxCell id="GjJC3CLc0AVbMbGIdXd2-201" value="" style="endArrow=none;html=1;rounded=0;" edge="1" parent="WIyWlLk6GJQsqaUBKTNV-1">
          <mxGeometry width="50" height="50" relative="1" as="geometry">
            <mxPoint x="360" y="2302" as="sourcePoint" />
            <mxPoint x="362.20000000000005" y="1832" as="targetPoint" />
          </mxGeometry>
        </mxCell>
        <mxCell id="GjJC3CLc0AVbMbGIdXd2-202" value="&lt;div&gt;Output&lt;/div&gt;&lt;div&gt;Terima kasih telah menggunakan jurnal keuangan&lt;br&gt;&lt;/div&gt;" style="shape=parallelogram;perimeter=parallelogramPerimeter;whiteSpace=wrap;html=1;fixedSize=1;" vertex="1" parent="WIyWlLk6GJQsqaUBKTNV-1">
          <mxGeometry x="232" y="2382" width="256" height="60" as="geometry" />
        </mxCell>
        <mxCell id="GjJC3CLc0AVbMbGIdXd2-203" value="" style="endArrow=classic;html=1;rounded=0;endFill=1;" edge="1" parent="WIyWlLk6GJQsqaUBKTNV-1" target="GjJC3CLc0AVbMbGIdXd2-204">
          <mxGeometry width="50" height="50" relative="1" as="geometry">
            <mxPoint x="360" y="2442" as="sourcePoint" />
            <mxPoint x="360" y="2472" as="targetPoint" />
          </mxGeometry>
        </mxCell>
        <mxCell id="GjJC3CLc0AVbMbGIdXd2-204" value="END" style="ellipse;whiteSpace=wrap;html=1;" vertex="1" parent="WIyWlLk6GJQsqaUBKTNV-1">
          <mxGeometry x="300" y="2482" width="120" height="80" as="geometry" />
        </mxCell>
        <mxCell id="GjJC3CLc0AVbMbGIdXd2-205" value="" style="endArrow=classic;html=1;rounded=0;" edge="1" parent="WIyWlLk6GJQsqaUBKTNV-1">
          <mxGeometry width="50" height="50" relative="1" as="geometry">
            <mxPoint x="1152.5" y="1792" as="sourcePoint" />
            <mxPoint x="1182.5" y="1792" as="targetPoint" />
          </mxGeometry>
        </mxCell>
        <mxCell id="GjJC3CLc0AVbMbGIdXd2-206" value="" style="endArrow=classic;html=1;rounded=0;" edge="1" parent="WIyWlLk6GJQsqaUBKTNV-1">
          <mxGeometry width="50" height="50" relative="1" as="geometry">
            <mxPoint x="1120" y="1872" as="sourcePoint" />
            <mxPoint x="1150" y="1872" as="targetPoint" />
          </mxGeometry>
        </mxCell>
        <mxCell id="GjJC3CLc0AVbMbGIdXd2-207" value="" style="endArrow=classic;html=1;rounded=0;" edge="1" parent="WIyWlLk6GJQsqaUBKTNV-1">
          <mxGeometry width="50" height="50" relative="1" as="geometry">
            <mxPoint x="850" y="1982" as="sourcePoint" />
            <mxPoint x="880" y="1982" as="targetPoint" />
          </mxGeometry>
        </mxCell>
        <mxCell id="GjJC3CLc0AVbMbGIdXd2-208" value="" style="endArrow=classic;html=1;rounded=0;" edge="1" parent="WIyWlLk6GJQsqaUBKTNV-1">
          <mxGeometry width="50" height="50" relative="1" as="geometry">
            <mxPoint x="470" y="2402" as="sourcePoint" />
            <mxPoint x="500" y="2402" as="targetPoint" />
          </mxGeometry>
        </mxCell>
        <mxCell id="GjJC3CLc0AVbMbGIdXd2-209" value="" style="endArrow=classic;html=1;rounded=0;" edge="1" parent="WIyWlLk6GJQsqaUBKTNV-1">
          <mxGeometry width="50" height="50" relative="1" as="geometry">
            <mxPoint x="302.5" y="1782" as="sourcePoint" />
            <mxPoint x="332.5" y="1782" as="targetPoint" />
          </mxGeometry>
        </mxCell>
        <mxCell id="GjJC3CLc0AVbMbGIdXd2-210" value="" style="endArrow=classic;html=1;rounded=0;" edge="1" parent="WIyWlLk6GJQsqaUBKTNV-1">
          <mxGeometry width="50" height="50" relative="1" as="geometry">
            <mxPoint x="270" y="1872" as="sourcePoint" />
            <mxPoint x="300" y="1872" as="targetPoint" />
          </mxGeometry>
        </mxCell>
        <mxCell id="GjJC3CLc0AVbMbGIdXd2-211" value="" style="endArrow=classic;html=1;rounded=0;" edge="1" parent="WIyWlLk6GJQsqaUBKTNV-1">
          <mxGeometry width="50" height="50" relative="1" as="geometry">
            <mxPoint x="-30" y="1996.57" as="sourcePoint" />
            <mxPoint y="1996.57" as="targetPoint" />
          </mxGeometry>
        </mxCell>
      </root>
    </mxGraphModel>
  </diagram>
</mxfile>
